<svg width="36" height="37" viewBox="0 0 36 37" fill="none" xmlns="http://www.w3.org/2000/svg">
<path d="M35.8161 18.3147C35.8161 23.1468 33.9512 27.781 30.6316 31.1978C27.312 34.6146 22.8096 36.5341 18.115 36.5341C13.4203 36.5341 8.91798 34.6146 5.59837 31.1978C2.27876 27.781 0.413818 23.1468 0.413818 18.3147C0.413818 13.4826 2.27876 8.84838 5.59837 5.43157C8.91798 2.01476 13.4203 0.0952148 18.115 0.0952148C22.8096 0.0952148 27.312 2.01476 30.6316 5.43157C33.9512 8.84838 35.8161 13.4826 35.8161 18.3147ZM15.4377 11.6942C15.2722 11.5729 15.0776 11.5009 14.875 11.486C14.6725 11.4711 14.4698 11.5138 14.2893 11.6095C14.1088 11.7052 13.9574 11.8503 13.8516 12.0287C13.7458 12.2071 13.6898 12.4121 13.6897 12.6211V24.0083C13.6898 24.2173 13.7458 24.4222 13.8516 24.6007C13.9574 24.7791 14.1088 24.9241 14.2893 25.0198C14.4698 25.1156 14.6725 25.1583 14.875 25.1434C15.0776 25.1284 15.2722 25.0564 15.4377 24.9352L23.1819 19.2416C23.3253 19.1363 23.4422 18.9972 23.5229 18.836C23.6035 18.6747 23.6456 18.496 23.6456 18.3147C23.6456 18.1333 23.6035 17.9546 23.5229 17.7934C23.4422 17.6322 23.3253 17.4931 23.1819 17.3878L15.4377 11.6942Z" fill="white"/>
</svg>
